# Blender v2.79 (sub 0) OBJ File: 'zombie.blend'
# www.blender.org
mtllib zombie.mtl
o Body
v 0.250000 0.750000 -0.125000
v -0.250000 0.750000 -0.125000
v -0.250000 1.500000 -0.125000
v 0.250000 1.500000 -0.125000
v 0.250000 0.750000 0.125000
v 0.250000 1.500000 0.125000
v -0.250000 0.750000 0.125000
v -0.250000 1.500000 0.125000
vt 0.311270 0.502896
vt 0.436270 0.502896
vt 0.436270 0.688302
vt 0.311270 0.688302
vt 0.248770 0.502896
vt 0.248770 0.688302
vt 0.498770 0.502896
vt 0.623770 0.502896
vt 0.623770 0.688302
vt 0.498770 0.688302
vt 0.436270 0.750103
vt 0.311270 0.750103
vt 0.561270 0.688302
vt 0.436270 0.688302
vt 0.436270 0.750103
vt 0.561270 0.750103
vn 0.0000 0.0000 -1.0000
vn 1.0000 0.0000 0.0000
vn 0.0000 -0.0000 1.0000
vn -1.0000 0.0000 0.0000
vn 0.0000 1.0000 0.0000
vn 0.0000 -1.0000 0.0000
usemtl m_0
s 1
f 1/1/1 2/2/1 3/3/1 4/4/1
f 5/5/2 1/1/2 4/4/2 6/6/2
f 7/7/3 5/8/3 6/9/3 8/10/3
f 2/2/4 7/7/4 8/10/4 3/3/4
f 8/11/5 6/12/5 4/4/5 3/3/5
f 2/13/6 1/14/6 5/15/6 7/16/6
o RightArm
v 0.443750 1.389571 -0.651128
v 0.194701 1.389571 -0.629339
v 0.259075 1.519807 0.106457
v 0.508124 1.519807 0.084668
v 0.447534 1.143369 -0.607881
v 0.511907 1.273605 0.127914
v 0.198485 1.143369 -0.586092
v 0.262859 1.273605 0.149703
vt 0.687790 0.501536
vt 0.750400 0.501536
vt 0.750400 0.687816
vt 0.687790 0.687816
vt 0.625180 0.501536
vt 0.625180 0.687816
vt 0.813010 0.501536
vt 0.875620 0.501536
vt 0.875620 0.687816
vt 0.813010 0.687816
vt 0.750400 0.749910
vt 0.687790 0.749910
vt 0.813010 0.687816
vt 0.750400 0.687816
vt 0.750400 0.749910
vt 0.813010 0.749910
vn -0.0151 0.9848 -0.1730
vn 0.9962 0.0000 -0.0872
vn 0.0151 -0.9848 0.1730
vn -0.9962 -0.0000 0.0872
vn 0.0858 0.1736 0.9811
vn -0.0858 -0.1736 -0.9811
usemtl m_0
s 1
f 9/17/7 10/18/7 11/19/7 12/20/7
f 13/21/8 9/17/8 12/20/8 14/22/8
f 15/23/9 13/24/9 14/25/9 16/26/9
f 10/18/10 15/23/10 16/26/10 11/19/10
f 16/27/11 14/28/11 12/20/11 11/19/11
f 10/29/12 9/30/12 13/31/12 15/32/12
o LeftArm
v -0.194802 1.333979 -0.628188
v -0.443851 1.333979 -0.649977
v -0.506990 1.528093 0.071711
v -0.257941 1.528093 0.093499
v -0.200441 1.092497 -0.563730
v -0.263581 1.286612 0.157958
v -0.449490 1.092497 -0.585519
v -0.512629 1.286612 0.136169
vt 0.750000 0.503296
vt 0.687500 0.503296
vt 0.687500 0.687381
vt 0.750000 0.687381
vt 0.812500 0.503296
vt 0.812500 0.687381
vt 0.875000 0.503296
vt 0.875000 0.687381
vt 0.625000 0.503296
vt 0.625000 0.687381
vt 0.687500 0.748742
vt 0.750000 0.748742
vt 0.750000 0.687381
vt 0.812500 0.687381
vt 0.812500 0.748742
vt 0.750000 0.748742
vn 0.0226 0.9659 -0.2578
vn 0.9962 0.0000 0.0872
vn -0.0226 -0.9659 0.2578
vn -0.9962 0.0000 -0.0872
vn -0.0842 0.2588 0.9623
vn 0.0842 -0.2588 -0.9623
usemtl m_0
s 1
f 17/33/13 18/34/13 19/35/13 20/36/13
f 21/37/14 17/33/14 20/36/14 22/38/14
f 23/39/15 21/37/15 22/38/15 24/40/15
f 18/34/16 23/41/16 24/42/16 19/35/16
f 24/43/17 22/44/17 20/36/17 19/35/17
f 18/45/18 17/46/18 21/47/18 23/48/18
o head
v 0.202849 1.486916 -0.289276
v -0.289554 1.486916 -0.202452
v -0.294098 1.986231 -0.228223
v 0.198305 1.986231 -0.315047
v 0.289554 1.513084 0.202453
v 0.285010 2.012399 0.176682
v -0.202849 1.513084 0.289277
v -0.207393 2.012399 0.263506
vt 0.125000 0.500000
vt 0.250000 0.500000
vt 0.250000 0.750000
vt 0.125000 0.750000
vt 0.000000 0.500000
vt 0.000000 0.750000
vt 0.375000 0.500000
vt 0.500000 0.500000
vt 0.500000 0.750000
vt 0.375000 0.750000
vt 0.250000 1.000000
vt 0.125000 1.000000
vt 0.375000 0.750000
vt 0.250000 0.750000
vt 0.250000 1.000000
vt 0.375000 1.000000
vn -0.1734 -0.0523 -0.9835
vn 0.9848 0.0000 -0.1736
vn 0.1734 0.0523 0.9835
vn -0.9848 -0.0000 0.1736
vn -0.0091 0.9986 -0.0515
vn 0.0091 -0.9986 0.0515
usemtl m_0
s 1
f 25/49/19 26/50/19 27/51/19 28/52/19
f 29/53/20 25/49/20 28/52/20 30/54/20
f 31/55/21 29/56/21 30/57/21 32/58/21
f 26/50/22 31/55/22 32/58/22 27/51/22
f 32/59/23 30/60/23 28/52/23 27/51/23
f 26/61/24 25/62/24 29/63/24 31/64/24
o RightLeg
v 0.297913 0.136377 -0.430252
v 0.048864 0.114588 -0.430252
v -0.010379 0.791732 -0.113288
v 0.238670 0.813521 -0.113288
v 0.307121 0.031124 -0.203675
v 0.247879 0.708268 0.113289
v 0.058072 0.009335 -0.203675
v -0.001170 0.686479 0.113289
vt 0.062500 0.502112
vt 0.125000 0.502112
vt 0.125000 0.690539
vt 0.062500 0.690539
vt 0.000000 0.502112
vt 0.000000 0.690539
vt 0.187500 0.502112
vt 0.250000 0.502112
vt 0.250000 0.690539
vt 0.187500 0.690539
vt 0.125000 0.753348
vt 0.062500 0.753348
vt 0.187500 0.690539
vt 0.125000 0.690539
vt 0.125000 0.753348
vt 0.187500 0.753348
vn -0.0368 0.4210 -0.9063
vn 0.9962 0.0872 -0.0000
vn 0.0368 -0.4210 0.9063
vn -0.9962 -0.0872 -0.0000
vn -0.0790 0.9029 0.4226
vn 0.0790 -0.9029 -0.4226
usemtl m_0
s 1
f 33/65/25 34/66/25 35/67/25 36/68/25
f 37/69/26 33/65/26 36/68/26 38/70/26
f 39/71/27 37/72/27 38/73/27 40/74/27
f 34/66/28 39/71/28 40/74/28 35/67/28
f 40/75/29 38/76/29 36/68/29 35/67/29
f 34/77/30 33/78/30 37/79/30 39/80/30
o LeftLeg
v 0.006250 0.002478 0.139054
v -0.243750 0.002478 0.139054
v -0.243750 0.707247 -0.117461
v 0.006250 0.707247 -0.117461
v 0.006250 0.087983 0.373977
v 0.006250 0.792753 0.117462
v -0.243750 0.087983 0.373977
v -0.243750 0.792753 0.117462
vt 0.126230 0.501654
vt 0.063730 0.501654
vt 0.063730 0.688923
vt 0.126230 0.688923
vt 0.188730 0.501654
vt 0.188730 0.688923
vt 0.251230 0.501654
vt 0.251230 0.688923
vt 0.001230 0.501654
vt 0.001230 0.688923
vt 0.063730 0.751346
vt 0.126230 0.751346
vt 0.126230 0.688923
vt 0.188730 0.688923
vt 0.188730 0.751346
vt 0.126230 0.751346
vn 0.0000 -0.3420 -0.9397
vn 1.0000 0.0000 0.0000
vn 0.0000 0.3420 0.9397
vn -1.0000 0.0000 0.0000
vn 0.0000 0.9397 -0.3420
vn 0.0000 -0.9397 0.3420
usemtl m_0
s 1
f 41/81/31 42/82/31 43/83/31 44/84/31
f 45/85/32 41/81/32 44/84/32 46/86/32
f 47/87/33 45/85/33 46/86/33 48/88/33
f 42/82/34 47/89/34 48/90/34 43/83/34
f 48/91/35 46/92/35 44/84/35 43/83/35
f 42/93/36 41/94/36 45/95/36 47/96/36
o hat
v 0.228490 1.454073 -0.323825
v -0.325465 1.454073 -0.226148
v -0.330577 2.015802 -0.255140
v 0.223378 2.015802 -0.352817
v 0.326033 1.483512 0.229370
v 0.320921 2.045241 0.200378
v -0.227922 1.483512 0.327047
v -0.233034 2.045241 0.298055
vt 0.125636 0.752768
vt 0.248791 0.752768
vt 0.248791 0.875000
vt 0.125636 0.875000
vt 0.002480 0.752768
vt 0.002480 0.875000
vt 0.371947 0.752768
vt 0.495102 0.752768
vt 0.495102 0.875000
vt 0.371947 0.875000
vt 0.248791 0.997232
vt 0.125636 0.997232
vt 0.371947 0.875000
vt 0.248791 0.875000
vt 0.248791 0.997232
vt 0.371947 0.997232
vn -0.1734 -0.0523 -0.9835
vn 0.9848 0.0000 -0.1736
vn 0.1734 0.0523 0.9835
vn -0.9848 0.0000 0.1736
vn -0.0091 0.9986 -0.0515
vn 0.0091 -0.9986 0.0515
usemtl m_0
s 1
f 49/97/37 50/98/37 51/99/37 52/100/37
f 53/101/38 49/97/38 52/100/38 54/102/38
f 55/103/39 53/104/39 54/105/39 56/106/39
f 50/98/40 55/103/40 56/106/40 51/99/40
f 56/107/41 54/108/41 52/100/41 51/99/41
f 50/109/42 49/110/42 53/111/42 55/112/42
